<?xml version="1.0" encoding="utf-8" ?>
<svg baseProfile="full" height="460" version="1.1" width="630" xmlns="http://www.w3.org/2000/svg" xmlns:ev="http://www.w3.org/2001/xml-events" xmlns:xlink="http://www.w3.org/1999/xlink"><defs /><circle cx="88" cy="28" fill="rgb(100%,100%,46%)" r="0.5" /><circle cx="88" cy="29" fill="rgb(100%,100%,46%)" r="0.5" /><circle cx="89" cy="25" fill="rgb(100%,100%,46%)" r="0.5" /><circle cx="89" cy="26" fill="rgb(100%,100%,46%)" r="0.5" /><circle cx="89" cy="27" fill="rgb(100%,100%,46%)" r="0.5" /><circle cx="89" cy="28" fill="rgb(100%,100%,46%)" r="0.5" /><circle cx="89" cy="29" fill="rgb(100%,100%,46%)" r="0.5" /><circle cx="89" cy="30" fill="rgb(100%,100%,46%)" r="0.5" /><circle cx="89" cy="31" fill="rgb(100%,100%,46%)" r="0.5" /><circle cx="89" cy="32" fill="rgb(100%,100%,46%)" r="0.5" /><circle cx="89" cy="33" fill="rgb(100%,100%,46%)" r="0.5" /><circle cx="90" cy="23" fill="rgb(100%,100%,46%)" r="0.5" /><circle cx="90" cy="24" fill="rgb(100%,100%,46%)" r="0.5" /><circle cx="90" cy="25" fill="rgb(100%,100%,46%)" r="0.5" /><circle cx="90" cy="26" fill="rgb(100%,100%,46%)" r="0.5" /><circle cx="90" cy="27" fill="rgb(100%,100%,46%)" r="0.5" /><circle cx="90" cy="28" fill="rgb(100%,100%,46%)" r="0.5" /><circle cx="90" cy="29" fill="rgb(100%,100%,46%)" r="0.5" /><circle cx="90" cy="30" fill="rgb(100%,100%,46%)" r="0.5" /><circle cx="90" cy="31" fill="rgb(100%,100%,46%)" r="0.5" /><circle cx="90" cy="32" fill="rgb(100%,100%,46%)" r="0.5" /><circle cx="90" cy="33" fill="rgb(100%,100%,46%)" r="0.5" /><circle cx="90" cy="34" fill="rgb(100%,100%,46%)" r="0.5" /><circle cx="91" cy="22" fill="rgb(100%,100%,46%)" r="0.5" /><circle cx="91" cy="23" fill="rgb(100%,100%,46%)" r="0.5" /><circle cx="91" cy="24" fill="rgb(100%,100%,46%)" r="0.5" /><circle cx="91" cy="25" fill="rgb(100%,100%,46%)" r="0.5" /><circle cx="91" cy="26" fill="rgb(100%,100%,46%)" r="0.5" /><circle cx="91" cy="27" fill="rgb(100%,100%,46%)" r="0.5" /><circle cx="91" cy="28" fill="rgb(100%,100%,46%)" r="0.5" /><circle cx="91" cy="29" fill="rgb(100%,100%,46%)" r="0.5" /><circle cx="91" cy="30" fill="rgb(100%,100%,46%)" r="0.5" /><circle cx="91" cy="31" fill="rgb(100%,100%,46%)" r="0.5" /><circle cx="91" cy="32" fill="rgb(100%,100%,46%)" r="0.5" /><circle cx="91" cy="33" fill="rgb(100%,100%,46%)" r="0.5" /><circle cx="91" cy="34" fill="rgb(100%,100%,46%)" r="0.5" /><circle cx="91" cy="35" fill="rgb(100%,100%,46%)" r="0.5" /><circle cx="92" cy="21" fill="rgb(100%,100%,46%)" r="0.5" /><circle cx="92" cy="22" fill="rgb(100%,100%,46%)" r="0.5" /><circle cx="92" cy="23" fill="rgb(100%,100%,46%)" r="0.5" /><circle cx="92" cy="24" fill="rgb(100%,100%,46%)" r="0.5" /><circle cx="92" cy="25" fill="rgb(100%,100%,46%)" r="0.5" /><circle cx="92" cy="26" fill="rgb(100%,100%,46%)" r="0.5" /><circle cx="92" cy="27" fill="rgb(100%,100%,46%)" r="0.5" /><circle cx="92" cy="28" fill="rgb(100%,100%,46%)" r="0.5" /><circle cx="92" cy="29" fill="rgb(100%,100%,46%)" r="0.5" /><circle cx="92" cy="30" fill="rgb(100%,100%,46%)" r="0.5" /><circle cx="92" cy="31" fill="rgb(100%,100%,46%)" r="0.5" /><circle cx="92" cy="32" fill="rgb(100%,100%,46%)" r="0.5" /><circle cx="92" cy="33" fill="rgb(100%,100%,46%)" r="0.5" /><circle cx="92" cy="34" fill="rgb(100%,100%,46%)" r="0.5" /><circle cx="92" cy="35" fill="rgb(100%,100%,46%)" r="0.5" /><circle cx="92" cy="36" fill="rgb(100%,100%,46%)" r="0.5" /><circle cx="93" cy="20" fill="rgb(100%,100%,46%)" r="0.5" /><circle cx="93" cy="21" fill="rgb(100%,100%,46%)" r="0.5" /><circle cx="93" cy="22" fill="rgb(100%,100%,46%)" r="0.5" /><circle cx="93" cy="23" fill="rgb(100%,100%,46%)" r="0.5" /><circle cx="93" cy="24" fill="rgb(100%,100%,46%)" r="0.5" /><circle cx="93" cy="25" fill="rgb(100%,100%,46%)" r="0.5" /><circle cx="93" cy="26" fill="rgb(100%,100%,46%)" r="0.5" /><circle cx="93" cy="27" fill="rgb(100%,100%,46%)" r="0.5" /><circle cx="93" cy="28" fill="rgb(100%,100%,46%)" r="0.5" /><circle cx="93" cy="29" fill="rgb(100%,100%,46%)" r="0.5" /><circle cx="93" cy="30" fill="rgb(100%,100%,46%)" r="0.5" /><circle cx="93" cy="31" fill="rgb(100%,100%,46%)" r="0.5" /><circle cx="93" cy="32" fill="rgb(100%,100%,46%)" r="0.5" /><circle cx="93" cy="33" fill="rgb(100%,100%,46%)" r="0.5" /><circle cx="93" cy="34" fill="rgb(100%,100%,46%)" r="0.5" /><circle cx="93" cy="35" fill="rgb(100%,100%,46%)" r="0.5" /><circle cx="93" cy="36" fill="rgb(100%,100%,46%)" r="0.5" /><circle cx="93" cy="37" fill="rgb(100%,100%,46%)" r="0.5" /><circle cx="94" cy="20" fill="rgb(100%,100%,46%)" r="0.5" /><circle cx="94" cy="21" fill="rgb(100%,100%,46%)" r="0.5" /><circle cx="94" cy="22" fill="rgb(100%,100%,46%)" r="0.5" /><circle cx="94" cy="23" fill="rgb(100%,100%,46%)" r="0.5" /><circle cx="94" cy="24" fill="rgb(100%,100%,46%)" r="0.5" /><circle cx="94" cy="25" fill="rgb(100%,100%,46%)" r="0.5" /><circle cx="94" cy="26" fill="rgb(100%,100%,46%)" r="0.5" /><circle cx="94" cy="27" fill="rgb(100%,100%,46%)" r="0.5" /><circle cx="94" cy="28" fill="rgb(100%,100%,46%)" r="0.5" /><circle cx="94" cy="29" fill="rgb(100%,100%,46%)" r="0.5" /><circle cx="94" cy="30" fill="rgb(100%,100%,46%)" r="0.5" /><circle cx="94" cy="31" fill="rgb(100%,100%,46%)" r="0.5" /><circle cx="94" cy="32" fill="rgb(100%,100%,46%)" r="0.5" /><circle cx="94" cy="33" fill="rgb(100%,100%,46%)" r="0.5" /><circle cx="94" cy="34" fill="rgb(100%,100%,46%)" r="0.5" /><circle cx="94" cy="35" fill="rgb(100%,100%,46%)" r="0.5" /><circle cx="94" cy="36" fill="rgb(100%,100%,46%)" r="0.5" /><circle cx="94" cy="37" fill="rgb(100%,100%,46%)" r="0.5" /><circle cx="95" cy="20" fill="rgb(100%,100%,46%)" r="0.5" /><circle cx="95" cy="21" fill="rgb(100%,100%,46%)" r="0.5" /><circle cx="95" cy="22" fill="rgb(100%,100%,46%)" r="0.5" /><circle cx="95" cy="23" fill="rgb(100%,100%,46%)" r="0.5" /><circle cx="95" cy="24" fill="rgb(100%,100%,46%)" r="0.5" /><circle cx="95" cy="25" fill="rgb(100%,100%,46%)" r="0.5" /><circle cx="95" cy="26" fill="rgb(100%,100%,46%)" r="0.5" /><circle cx="95" cy="27" fill="rgb(100%,100%,46%)" r="0.5" /><circle cx="95" cy="28" fill="rgb(100%,100%,46%)" r="0.5" /><circle cx="95" cy="29" fill="rgb(100%,100%,46%)" r="0.5" /><circle cx="95" cy="30" fill="rgb(100%,100%,46%)" r="0.5" /><circle cx="95" cy="31" fill="rgb(100%,100%,46%)" r="0.5" /><circle cx="95" cy="32" fill="rgb(100%,100%,46%)" r="0.5" /><circle cx="95" cy="33" fill="rgb(100%,100%,46%)" r="0.5" /><circle cx="95" cy="34" fill="rgb(100%,100%,46%)" r="0.5" /><circle cx="95" cy="35" fill="rgb(100%,100%,46%)" r="0.5" /><circle cx="95" cy="36" fill="rgb(100%,100%,46%)" r="0.5" /><circle cx="95" cy="37" fill="rgb(100%,100%,46%)" r="0.5" /><circle cx="95" cy="38" fill="rgb(100%,100%,46%)" r="0.5" /><circle cx="96" cy="19" fill="rgb(100%,100%,46%)" r="0.5" /><circle cx="96" cy="20" fill="rgb(100%,100%,46%)" r="0.5" /><circle cx="96" cy="21" fill="rgb(100%,100%,46%)" r="0.5" /><circle cx="96" cy="22" fill="rgb(100%,100%,46%)" r="0.5" /><circle cx="96" cy="23" fill="rgb(100%,100%,46%)" r="0.5" /><circle cx="96" cy="24" fill="rgb(100%,100%,46%)" r="0.5" /><circle cx="96" cy="25" fill="rgb(100%,100%,46%)" r="0.5" /><circle cx="96" cy="26" fill="rgb(100%,100%,46%)" r="0.5" /><circle cx="96" cy="27" fill="rgb(100%,100%,46%)" r="0.5" /><circle cx="96" cy="28" fill="rgb(100%,100%,46%)" r="0.5" /><circle cx="96" cy="29" fill="rgb(100%,100%,46%)" r="0.5" /><circle cx="96" cy="30" fill="rgb(100%,100%,46%)" r="0.5" /><circle cx="96" cy="31" fill="rgb(100%,100%,46%)" r="0.5" /><circle cx="96" cy="32" fill="rgb(100%,100%,46%)" r="0.5" /><circle cx="96" cy="33" fill="rgb(100%,100%,46%)" r="0.5" /><circle cx="96" cy="34" fill="rgb(100%,100%,46%)" r="0.5" /><circle cx="96" cy="35" fill="rgb(100%,100%,46%)" r="0.5" /><circle cx="96" cy="36" fill="rgb(100%,100%,46%)" r="0.5" /><circle cx="96" cy="37" fill="rgb(100%,100%,46%)" r="0.5" /><circle cx="96" cy="38" fill="rgb(100%,100%,46%)" r="0.5" /><circle cx="97" cy="19" fill="rgb(100%,100%,46%)" r="0.5" /><circle cx="97" cy="20" fill="rgb(100%,100%,46%)" r="0.5" /><circle cx="97" cy="21" fill="rgb(100%,100%,46%)" r="0.5" /><circle cx="97" cy="22" fill="rgb(100%,100%,46%)" r="0.5" /><circle cx="97" cy="23" fill="rgb(100%,100%,46%)" r="0.5" /><circle cx="97" cy="24" fill="rgb(100%,100%,46%)" r="0.5" /><circle cx="97" cy="25" fill="rgb(100%,100%,46%)" r="0.5" /><circle cx="97" cy="26" fill="rgb(100%,100%,46%)" r="0.5" /><circle cx="97" cy="27" fill="rgb(100%,100%,46%)" r="0.5" /><circle cx="97" cy="28" fill="rgb(100%,100%,46%)" r="0.5" /><circle cx="97" cy="29" fill="rgb(100%,100%,46%)" r="0.5" /><circle cx="97" cy="30" fill="rgb(100%,100%,46%)" r="0.5" /><circle cx="97" cy="31" fill="rgb(100%,100%,46%)" r="0.5" /><circle cx="97" cy="32" fill="rgb(100%,100%,46%)" r="0.5" /><circle cx="97" cy="33" fill="rgb(100%,100%,46%)" r="0.5" /><circle cx="97" cy="34" fill="rgb(100%,100%,46%)" r="0.5" /><circle cx="97" cy="35" fill="rgb(100%,100%,46%)" r="0.5" /><circle cx="97" cy="36" fill="rgb(100%,100%,46%)" r="0.5" /><circle cx="97" cy="37" fill="rgb(100%,100%,46%)" r="0.5" /><circle cx="97" cy="38" fill="rgb(100%,100%,46%)" r="0.5" /><circle cx="98" cy="19" fill="rgb(100%,100%,46%)" r="0.5" /><circle cx="98" cy="20" fill="rgb(100%,100%,46%)" r="0.5" /><circle cx="98" cy="21" fill="rgb(100%,100%,46%)" r="0.5" /><circle cx="98" cy="22" fill="rgb(100%,100%,46%)" r="0.5" /><circle cx="98" cy="23" fill="rgb(100%,100%,46%)" r="0.5" /><circle cx="98" cy="24" fill="rgb(100%,100%,46%)" r="0.5" /><circle cx="98" cy="25" fill="rgb(100%,100%,46%)" r="0.5" /><circle cx="98" cy="26" fill="rgb(100%,100%,46%)" r="0.5" /><circle cx="98" cy="27" fill="rgb(100%,100%,46%)" r="0.5" /><circle cx="98" cy="28" fill="rgb(100%,100%,46%)" r="0.5" /><circle cx="98" cy="29" fill="rgb(100%,100%,46%)" r="0.5" /><circle cx="98" cy="30" fill="rgb(100%,100%,46%)" r="0.5" /><circle cx="98" cy="31" fill="rgb(100%,100%,46%)" r="0.5" /><circle cx="98" cy="32" fill="rgb(100%,100%,46%)" r="0.5" /><circle cx="98" cy="33" fill="rgb(100%,100%,46%)" r="0.5" /><circle cx="98" cy="34" fill="rgb(100%,100%,46%)" r="0.5" /><circle cx="98" cy="35" fill="rgb(100%,100%,46%)" r="0.5" /><circle cx="98" cy="36" fill="rgb(100%,100%,46%)" r="0.5" /><circle cx="98" cy="37" fill="rgb(100%,100%,46%)" r="0.5" /><circle cx="98" cy="38" fill="rgb(100%,100%,46%)" r="0.5" /><circle cx="99" cy="19" fill="rgb(100%,100%,46%)" r="0.5" /><circle cx="99" cy="20" fill="rgb(100%,100%,46%)" r="0.5" /><circle cx="99" cy="21" fill="rgb(100%,100%,46%)" r="0.5" /><circle cx="99" cy="22" fill="rgb(100%,100%,46%)" r="0.5" /><circle cx="99" cy="23" fill="rgb(100%,100%,46%)" r="0.5" /><circle cx="99" cy="24" fill="rgb(100%,100%,46%)" r="0.5" /><circle cx="99" cy="25" fill="rgb(100%,100%,46%)" r="0.5" /><circle cx="99" cy="26" fill="rgb(100%,100%,46%)" r="0.5" /><circle cx="99" cy="27" fill="rgb(100%,100%,46%)" r="0.5" /><circle cx="99" cy="28" fill="rgb(100%,100%,46%)" r="0.5" /><circle cx="99" cy="29" fill="rgb(100%,100%,46%)" r="0.5" /><circle cx="99" cy="30" fill="rgb(100%,100%,46%)" r="0.5" /><circle cx="99" cy="31" fill="rgb(100%,100%,46%)" r="0.5" /><circle cx="99" cy="32" fill="rgb(100%,100%,46%)" r="0.5" /><circle cx="99" cy="33" fill="rgb(100%,100%,46%)" r="0.5" /><circle cx="99" cy="34" fill="rgb(100%,100%,46%)" r="0.5" /><circle cx="99" cy="35" fill="rgb(100%,100%,46%)" r="0.5" /><circle cx="99" cy="36" fill="rgb(100%,100%,46%)" r="0.5" /><circle cx="99" cy="37" fill="rgb(100%,100%,46%)" r="0.5" /><circle cx="99" cy="38" fill="rgb(100%,100%,46%)" r="0.5" /><circle cx="100" cy="19" fill="rgb(100%,100%,46%)" r="0.5" /><circle cx="100" cy="20" fill="rgb(100%,100%,46%)" r="0.5" /><circle cx="100" cy="21" fill="rgb(100%,100%,46%)" r="0.5" /><circle cx="100" cy="22" fill="rgb(100%,100%,46%)" r="0.5" /><circle cx="100" cy="23" fill="rgb(100%,100%,46%)" r="0.5" /><circle cx="100" cy="24" fill="rgb(100%,100%,46%)" r="0.5" /><circle cx="100" cy="25" fill="rgb(100%,100%,46%)" r="0.5" /><circle cx="100" cy="26" fill="rgb(100%,100%,46%)" r="0.5" /><circle cx="100" cy="27" fill="rgb(100%,100%,46%)" r="0.5" /><circle cx="100" cy="28" fill="rgb(100%,100%,46%)" r="0.5" /><circle cx="100" cy="29" fill="rgb(100%,100%,46%)" r="0.5" /><circle cx="100" cy="30" fill="rgb(100%,100%,46%)" r="0.5" /><circle cx="100" cy="31" fill="rgb(100%,100%,46%)" r="0.5" /><circle cx="100" cy="32" fill="rgb(100%,100%,46%)" r="0.5" /><circle cx="100" cy="33" fill="rgb(100%,100%,46%)" r="0.5" /><circle cx="100" cy="34" fill="rgb(100%,100%,46%)" r="0.5" /><circle cx="100" cy="35" fill="rgb(100%,100%,46%)" r="0.5" /><circle cx="100" cy="36" fill="rgb(100%,100%,46%)" r="0.5" /><circle cx="100" cy="37" fill="rgb(100%,100%,46%)" r="0.5" /><circle cx="100" cy="38" fill="rgb(100%,100%,46%)" r="0.5" /><circle cx="101" cy="20" fill="rgb(100%,100%,46%)" r="0.5" /><circle cx="101" cy="21" fill="rgb(100%,100%,46%)" r="0.5" /><circle cx="101" cy="22" fill="rgb(100%,100%,46%)" r="0.5" /><circle cx="101" cy="23" fill="rgb(100%,100%,46%)" r="0.5" /><circle cx="101" cy="24" fill="rgb(100%,100%,46%)" r="0.5" /><circle cx="101" cy="25" fill="rgb(100%,100%,46%)" r="0.5" /><circle cx="101" cy="26" fill="rgb(100%,100%,46%)" r="0.5" /><circle cx="101" cy="27" fill="rgb(100%,100%,46%)" r="0.5" /><circle cx="101" cy="28" fill="rgb(100%,100%,46%)" r="0.5" /><circle cx="101" cy="29" fill="rgb(100%,100%,46%)" r="0.5" /><circle cx="101" cy="30" fill="rgb(100%,100%,46%)" r="0.5" /><circle cx="101" cy="31" fill="rgb(100%,100%,46%)" r="0.5" /><circle cx="101" cy="32" fill="rgb(100%,100%,46%)" r="0.5" /><circle cx="101" cy="33" fill="rgb(100%,100%,46%)" r="0.5" /><circle cx="101" cy="34" fill="rgb(100%,100%,46%)" r="0.5" /><circle cx="101" cy="35" fill="rgb(100%,100%,46%)" r="0.5" /><circle cx="101" cy="36" fill="rgb(100%,100%,46%)" r="0.5" /><circle cx="101" cy="37" fill="rgb(100%,100%,46%)" r="0.5" /><circle cx="101" cy="38" fill="rgb(100%,100%,46%)" r="0.5" /><circle cx="102" cy="20" fill="rgb(100%,100%,46%)" r="0.5" /><circle cx="102" cy="21" fill="rgb(100%,100%,46%)" r="0.5" /><circle cx="102" cy="22" fill="rgb(100%,100%,46%)" r="0.5" /><circle cx="102" cy="23" fill="rgb(100%,100%,46%)" r="0.5" /><circle cx="102" cy="24" fill="rgb(100%,100%,46%)" r="0.5" /><circle cx="102" cy="25" fill="rgb(100%,100%,46%)" r="0.5" /><circle cx="102" cy="26" fill="rgb(100%,100%,46%)" r="0.5" /><circle cx="102" cy="27" fill="rgb(100%,100%,46%)" r="0.5" /><circle cx="102" cy="28" fill="rgb(100%,100%,46%)" r="0.5" /><circle cx="102" cy="29" fill="rgb(100%,100%,46%)" r="0.5" /><circle cx="102" cy="30" fill="rgb(100%,100%,46%)" r="0.5" /><circle cx="102" cy="31" fill="rgb(100%,100%,46%)" r="0.5" /><circle cx="102" cy="32" fill="rgb(100%,100%,46%)" r="0.5" /><circle cx="102" cy="33" fill="rgb(100%,100%,46%)" r="0.5" /><circle cx="102" cy="34" fill="rgb(100%,100%,46%)" r="0.5" /><circle cx="102" cy="35" fill="rgb(100%,100%,46%)" r="0.5" /><circle cx="102" cy="36" fill="rgb(100%,100%,46%)" r="0.5" /><circle cx="102" cy="37" fill="rgb(100%,100%,46%)" r="0.5" /><circle cx="103" cy="20" fill="rgb(100%,100%,46%)" r="0.5" /><circle cx="103" cy="21" fill="rgb(100%,100%,46%)" r="0.5" /><circle cx="103" cy="22" fill="rgb(100%,100%,46%)" r="0.5" /><circle cx="103" cy="23" fill="rgb(100%,100%,46%)" r="0.5" /><circle cx="103" cy="24" fill="rgb(100%,100%,46%)" r="0.5" /><circle cx="103" cy="25" fill="rgb(100%,100%,46%)" r="0.5" /><circle cx="103" cy="26" fill="rgb(100%,100%,46%)" r="0.5" /><circle cx="103" cy="27" fill="rgb(100%,100%,46%)" r="0.5" /><circle cx="103" cy="28" fill="rgb(100%,100%,46%)" r="0.5" /><circle cx="103" cy="29" fill="rgb(100%,100%,46%)" r="0.5" /><circle cx="103" cy="30" fill="rgb(100%,100%,46%)" r="0.5" /><circle cx="103" cy="31" fill="rgb(100%,100%,46%)" r="0.5" /><circle cx="103" cy="32" fill="rgb(100%,100%,46%)" r="0.5" /><circle cx="103" cy="33" fill="rgb(100%,100%,46%)" r="0.5" /><circle cx="103" cy="34" fill="rgb(100%,100%,46%)" r="0.5" /><circle cx="103" cy="35" fill="rgb(100%,100%,46%)" r="0.5" /><circle cx="103" cy="36" fill="rgb(100%,100%,46%)" r="0.5" /><circle cx="103" cy="37" fill="rgb(100%,100%,46%)" r="0.5" /><circle cx="104" cy="21" fill="rgb(100%,100%,46%)" r="0.5" /><circle cx="104" cy="22" fill="rgb(100%,100%,46%)" r="0.5" /><circle cx="104" cy="23" fill="rgb(100%,100%,46%)" r="0.5" /><circle cx="104" cy="24" fill="rgb(100%,100%,46%)" r="0.5" /><circle cx="104" cy="25" fill="rgb(100%,100%,46%)" r="0.5" /><circle cx="104" cy="26" fill="rgb(100%,100%,46%)" r="0.5" /><circle cx="104" cy="27" fill="rgb(100%,100%,46%)" r="0.5" /><circle cx="104" cy="28" fill="rgb(100%,100%,46%)" r="0.5" /><circle cx="104" cy="29" fill="rgb(100%,100%,46%)" r="0.5" /><circle cx="104" cy="30" fill="rgb(100%,100%,46%)" r="0.5" /><circle cx="104" cy="31" fill="rgb(100%,100%,46%)" r="0.5" /><circle cx="104" cy="32" fill="rgb(100%,100%,46%)" r="0.5" /><circle cx="104" cy="33" fill="rgb(100%,100%,46%)" r="0.5" /><circle cx="104" cy="34" fill="rgb(100%,100%,46%)" r="0.5" /><circle cx="104" cy="35" fill="rgb(100%,100%,46%)" r="0.5" /><circle cx="104" cy="36" fill="rgb(100%,100%,46%)" r="0.5" /><circle cx="105" cy="22" fill="rgb(100%,100%,46%)" r="0.5" /><circle cx="105" cy="23" fill="rgb(100%,100%,46%)" r="0.5" /><circle cx="105" cy="24" fill="rgb(100%,100%,46%)" r="0.5" /><circle cx="105" cy="25" fill="rgb(100%,100%,46%)" r="0.5" /><circle cx="105" cy="26" fill="rgb(100%,100%,46%)" r="0.5" /><circle cx="105" cy="27" fill="rgb(100%,100%,46%)" r="0.5" /><circle cx="105" cy="28" fill="rgb(100%,100%,46%)" r="0.5" /><circle cx="105" cy="29" fill="rgb(100%,100%,46%)" r="0.5" /><circle cx="105" cy="30" fill="rgb(100%,100%,46%)" r="0.5" /><circle cx="105" cy="31" fill="rgb(100%,100%,46%)" r="0.5" /><circle cx="105" cy="32" fill="rgb(100%,100%,46%)" r="0.5" /><circle cx="105" cy="33" fill="rgb(100%,100%,46%)" r="0.5" /><circle cx="105" cy="34" fill="rgb(100%,100%,46%)" r="0.5" /><circle cx="105" cy="35" fill="rgb(100%,100%,46%)" r="0.5" /><circle cx="106" cy="23" fill="rgb(100%,100%,46%)" r="0.5" /><circle cx="106" cy="24" fill="rgb(100%,100%,46%)" r="0.5" /><circle cx="106" cy="25" fill="rgb(100%,100%,46%)" r="0.5" /><circle cx="106" cy="26" fill="rgb(100%,100%,46%)" r="0.5" /><circle cx="106" cy="27" fill="rgb(100%,100%,46%)" r="0.5" /><circle cx="106" cy="28" fill="rgb(100%,100%,46%)" r="0.5" /><circle cx="106" cy="29" fill="rgb(100%,100%,46%)" r="0.5" /><circle cx="106" cy="30" fill="rgb(100%,100%,46%)" r="0.5" /><circle cx="106" cy="31" fill="rgb(100%,100%,46%)" r="0.5" /><circle cx="106" cy="32" fill="rgb(100%,100%,46%)" r="0.5" /><circle cx="106" cy="33" fill="rgb(100%,100%,46%)" r="0.5" /><circle cx="106" cy="34" fill="rgb(100%,100%,46%)" r="0.5" /><circle cx="107" cy="25" fill="rgb(100%,100%,46%)" r="0.5" /><circle cx="107" cy="26" fill="rgb(100%,100%,46%)" r="0.5" /><circle cx="107" cy="27" fill="rgb(100%,100%,46%)" r="0.5" /><circle cx="107" cy="28" fill="rgb(100%,100%,46%)" r="0.5" /><circle cx="107" cy="29" fill="rgb(100%,100%,46%)" r="0.5" /><circle cx="107" cy="30" fill="rgb(100%,100%,46%)" r="0.5" /><circle cx="107" cy="31" fill="rgb(100%,100%,46%)" r="0.5" /><circle cx="107" cy="32" fill="rgb(100%,100%,46%)" r="0.5" /><circle cx="107" cy="33" fill="rgb(100%,100%,46%)" r="0.5" /><circle cx="108" cy="28" fill="rgb(100%,100%,46%)" r="0.5" /><circle cx="108" cy="29" fill="rgb(100%,100%,46%)" r="0.5" /><circle cx="154" cy="31" fill="rgb(100%,100%,46%)" r="0.5" /><circle cx="154" cy="32" fill="rgb(100%,100%,46%)" r="0.5" /><circle cx="154" cy="33" fill="rgb(100%,100%,46%)" r="0.5" /><circle cx="154" cy="34" fill="rgb(100%,100%,46%)" r="0.5" /><circle cx="154" cy="35" fill="rgb(100%,100%,46%)" r="0.5" /><circle cx="154" cy="36" fill="rgb(100%,100%,46%)" r="0.5" /><circle cx="155" cy="29" fill="rgb(100%,100%,46%)" r="0.5" /><circle cx="155" cy="30" fill="rgb(100%,100%,46%)" r="0.5" /><circle cx="155" cy="31" fill="rgb(100%,100%,46%)" r="0.5" /><circle cx="155" cy="32" fill="rgb(100%,100%,46%)" r="0.5" /><circle cx="155" cy="33" fill="rgb(100%,100%,46%)" r="0.5" /><circle cx="155" cy="34" fill="rgb(100%,100%,46%)" r="0.5" /><circle cx="155" cy="35" fill="rgb(100%,100%,46%)" r="0.5" /><circle cx="155" cy="36" fill="rgb(100%,100%,46%)" r="0.5" /><circle cx="155" cy="37" fill="rgb(100%,100%,46%)" r="0.5" /><circle cx="155" cy="38" fill="rgb(100%,100%,46%)" r="0.5" /><circle cx="156" cy="27" fill="rgb(100%,100%,46%)" r="0.5" /><circle cx="156" cy="28" fill="rgb(100%,100%,46%)" r="0.5" /><circle cx="156" cy="29" fill="rgb(100%,100%,46%)" r="0.5" /><circle cx="156" cy="30" fill="rgb(100%,100%,46%)" r="0.5" /><circle cx="156" cy="31" fill="rgb(100%,100%,46%)" r="0.5" /><circle cx="156" cy="32" fill="rgb(100%,100%,46%)" r="0.5" /><circle cx="156" cy="33" fill="rgb(100%,100%,46%)" r="0.5" /><circle cx="156" cy="34" fill="rgb(100%,100%,46%)" r="0.5" /><circle cx="156" cy="35" fill="rgb(100%,100%,46%)" r="0.5" /><circle cx="156" cy="36" fill="rgb(100%,100%,46%)" r="0.5" /><circle cx="156" cy="37" fill="rgb(100%,100%,46%)" r="0.5" /><circle cx="156" cy="38" fill="rgb(100%,100%,46%)" r="0.5" /><circle cx="156" cy="39" fill="rgb(100%,100%,46%)" r="0.5" /><circle cx="157" cy="26" fill="rgb(100%,100%,46%)" r="0.5" /><circle cx="157" cy="27" fill="rgb(100%,100%,46%)" r="0.5" /><circle cx="157" cy="28" fill="rgb(100%,100%,46%)" r="0.5" /><circle cx="157" cy="29" fill="rgb(100%,100%,46%)" r="0.5" /><circle cx="157" cy="30" fill="rgb(100%,100%,46%)" r="0.5" /><circle cx="157" cy="31" fill="rgb(100%,100%,46%)" r="0.5" /><circle cx="157" cy="32" fill="rgb(100%,100%,46%)" r="0.5" /><circle cx="157" cy="33" fill="rgb(100%,100%,46%)" r="0.5" /><circle cx="157" cy="34" fill="rgb(100%,100%,46%)" r="0.5" /><circle cx="157" cy="35" fill="rgb(100%,100%,46%)" r="0.5" /><circle cx="157" cy="36" fill="rgb(100%,100%,46%)" r="0.5" /><circle cx="157" cy="37" fill="rgb(100%,100%,46%)" r="0.5" /><circle cx="157" cy="38" fill="rgb(100%,100%,46%)" r="0.5" /><circle cx="157" cy="39" fill="rgb(100%,100%,46%)" r="0.5" /><circle cx="157" cy="40" fill="rgb(100%,100%,46%)" r="0.5" /><circle cx="158" cy="25" fill="rgb(100%,100%,46%)" r="0.5" /><circle cx="158" cy="26" fill="rgb(100%,100%,46%)" r="0.5" /><circle cx="158" cy="27" fill="rgb(100%,100%,46%)" r="0.5" /><circle cx="158" cy="28" fill="rgb(100%,100%,46%)" r="0.5" /><circle cx="158" cy="29" fill="rgb(100%,100%,46%)" r="0.5" /><circle cx="158" cy="30" fill="rgb(100%,100%,46%)" r="0.5" /><circle cx="158" cy="31" fill="rgb(100%,100%,46%)" r="0.5" /><circle cx="158" cy="32" fill="rgb(100%,100%,46%)" r="0.5" /><circle cx="158" cy="33" fill="rgb(100%,100%,46%)" r="0.5" /><circle cx="158" cy="34" fill="rgb(100%,100%,46%)" r="0.5" /><circle cx="158" cy="35" fill="rgb(100%,100%,46%)" r="0.5" /><circle cx="158" cy="36" fill="rgb(100%,100%,46%)" r="0.5" /><circle cx="158" cy="37" fill="rgb(100%,100%,46%)" r="0.5" /><circle cx="158" cy="38" fill="rgb(100%,100%,46%)" r="0.5" /><circle cx="158" cy="39" fill="rgb(100%,100%,46%)" r="0.5" /><circle cx="158" cy="40" fill="rgb(100%,100%,46%)" r="0.5" /><circle cx="158" cy="41" fill="rgb(100%,100%,46%)" r="0.5" /><circle cx="159" cy="25" fill="rgb(100%,100%,46%)" r="0.5" /><circle cx="159" cy="26" fill="rgb(100%,100%,46%)" r="0.5" /><circle cx="159" cy="27" fill="rgb(100%,100%,46%)" r="0.5" /><circle cx="159" cy="28" fill="rgb(100%,100%,46%)" r="0.5" /><circle cx="159" cy="29" fill="rgb(100%,100%,46%)" r="0.5" /><circle cx="159" cy="30" fill="rgb(100%,100%,46%)" r="0.5" /><circle cx="159" cy="31" fill="rgb(100%,100%,46%)" r="0.5" /><circle cx="159" cy="32" fill="rgb(100%,100%,46%)" r="0.5" /><circle cx="159" cy="33" fill="rgb(100%,100%,46%)" r="0.5" /><circle cx="159" cy="34" fill="rgb(100%,100%,46%)" r="0.5" /><circle cx="159" cy="35" fill="rgb(100%,100%,46%)" r="0.5" /><circle cx="159" cy="36" fill="rgb(100%,100%,46%)" r="0.5" /><circle cx="159" cy="37" fill="rgb(100%,100%,46%)" r="0.5" /><circle cx="159" cy="38" fill="rgb(100%,100%,46%)" r="0.5" /><circle cx="159" cy="39" fill="rgb(100%,100%,46%)" r="0.5" /><circle cx="159" cy="40" fill="rgb(100%,100%,46%)" r="0.5" /><circle cx="159" cy="41" fill="rgb(100%,100%,46%)" r="0.5" /><circle cx="159" cy="42" fill="rgb(100%,100%,46%)" r="0.5" /><circle cx="160" cy="24" fill="rgb(100%,100%,46%)" r="0.5" /><circle cx="160" cy="25" fill="rgb(100%,100%,46%)" r="0.5" /><circle cx="160" cy="26" fill="rgb(100%,100%,46%)" r="0.5" /><circle cx="160" cy="27" fill="rgb(100%,100%,46%)" r="0.5" /><circle cx="160" cy="28" fill="rgb(100%,100%,46%)" r="0.5" /><circle cx="160" cy="29" fill="rgb(100%,100%,46%)" r="0.5" /><circle cx="160" cy="30" fill="rgb(100%,100%,46%)" r="0.5" /><circle cx="160" cy="31" fill="rgb(100%,100%,46%)" r="0.5" /><circle cx="160" cy="32" fill="rgb(100%,100%,46%)" r="0.5" /><circle cx="160" cy="33" fill="rgb(100%,100%,46%)" r="0.5" /><circle cx="160" cy="34" fill="rgb(100%,100%,46%)" r="0.5" /><circle cx="160" cy="35" fill="rgb(100%,100%,46%)" r="0.5" /><circle cx="160" cy="36" fill="rgb(100%,100%,46%)" r="0.5" /><circle cx="160" cy="37" fill="rgb(100%,100%,46%)" r="0.5" /><circle cx="160" cy="38" fill="rgb(100%,100%,46%)" r="0.5" /><circle cx="160" cy="39" fill="rgb(100%,100%,46%)" r="0.5" /><circle cx="160" cy="40" fill="rgb(100%,100%,46%)" r="0.5" /><circle cx="160" cy="41" fill="rgb(100%,100%,46%)" r="0.5" /><circle cx="160" cy="42" fill="rgb(100%,100%,46%)" r="0.5" /><circle cx="161" cy="24" fill="rgb(100%,100%,46%)" r="0.5" /><circle cx="161" cy="25" fill="rgb(100%,100%,46%)" r="0.5" /><circle cx="161" cy="26" fill="rgb(100%,100%,46%)" r="0.5" /><circle cx="161" cy="27" fill="rgb(100%,100%,46%)" r="0.5" /><circle cx="161" cy="28" fill="rgb(100%,100%,46%)" r="0.5" /><circle cx="161" cy="29" fill="rgb(100%,100%,46%)" r="0.5" /><circle cx="161" cy="30" fill="rgb(100%,100%,46%)" r="0.5" /><circle cx="161" cy="31" fill="rgb(100%,100%,46%)" r="0.5" /><circle cx="161" cy="32" fill="rgb(100%,100%,46%)" r="0.5" /><circle cx="161" cy="33" fill="rgb(100%,100%,46%)" r="0.5" /><circle cx="161" cy="34" fill="rgb(100%,100%,46%)" r="0.5" /><circle cx="161" cy="35" fill="rgb(100%,100%,46%)" r="0.5" /><circle cx="161" cy="36" fill="rgb(100%,100%,46%)" r="0.5" /><circle cx="161" cy="37" fill="rgb(100%,100%,46%)" r="0.5" /><circle cx="161" cy="38" fill="rgb(100%,100%,46%)" r="0.5" /><circle cx="161" cy="39" fill="rgb(100%,100%,46%)" r="0.5" /><circle cx="161" cy="40" fill="rgb(100%,100%,46%)" r="0.5" /><circle cx="161" cy="41" fill="rgb(100%,100%,46%)" r="0.5" /><circle cx="161" cy="42" fill="rgb(100%,100%,46%)" r="0.5" /><circle cx="161" cy="43" fill="rgb(100%,100%,46%)" r="0.5" /><circle cx="162" cy="24" fill="rgb(100%,100%,46%)" r="0.5" /><circle cx="162" cy="25" fill="rgb(100%,100%,46%)" r="0.5" /><circle cx="162" cy="26" fill="rgb(100%,100%,46%)" r="0.5" /><circle cx="162" cy="27" fill="rgb(100%,100%,46%)" r="0.5" /><circle cx="162" cy="28" fill="rgb(100%,100%,46%)" r="0.5" /><circle cx="162" cy="29" fill="rgb(100%,100%,46%)" r="0.5" /><circle cx="162" cy="30" fill="rgb(100%,100%,46%)" r="0.5" /><circle cx="162" cy="31" fill="rgb(100%,100%,46%)" r="0.5" /><circle cx="162" cy="32" fill="rgb(100%,100%,46%)" r="0.5" /><circle cx="162" cy="33" fill="rgb(100%,100%,46%)" r="0.5" /><circle cx="162" cy="34" fill="rgb(100%,100%,46%)" r="0.5" /><circle cx="162" cy="35" fill="rgb(100%,100%,46%)" r="0.5" /><circle cx="162" cy="36" fill="rgb(100%,100%,46%)" r="0.5" /><circle cx="162" cy="37" fill="rgb(100%,100%,46%)" r="0.5" /><circle cx="162" cy="38" fill="rgb(100%,100%,46%)" r="0.5" /><circle cx="162" cy="39" fill="rgb(100%,100%,46%)" r="0.5" /><circle cx="162" cy="40" fill="rgb(100%,100%,46%)" r="0.5" /><circle cx="162" cy="41" fill="rgb(100%,100%,46%)" r="0.5" /><circle cx="162" cy="42" fill="rgb(100%,100%,46%)" r="0.5" /><circle cx="162" cy="43" fill="rgb(100%,100%,46%)" r="0.5" /><circle cx="163" cy="24" fill="rgb(100%,100%,46%)" r="0.5" /><circle cx="163" cy="25" fill="rgb(100%,100%,46%)" r="0.5" /><circle cx="163" cy="26" fill="rgb(100%,100%,46%)" r="0.5" /><circle cx="163" cy="27" fill="rgb(100%,100%,46%)" r="0.5" /><circle cx="163" cy="28" fill="rgb(100%,100%,46%)" r="0.5" /><circle cx="163" cy="29" fill="rgb(100%,100%,46%)" r="0.5" /><circle cx="163" cy="30" fill="rgb(100%,100%,46%)" r="0.5" /><circle cx="163" cy="31" fill="rgb(100%,100%,46%)" r="0.5" /><circle cx="163" cy="32" fill="rgb(100%,100%,46%)" r="0.5" /><circle cx="163" cy="33" fill="rgb(100%,100%,46%)" r="0.5" /><circle cx="163" cy="34" fill="rgb(100%,100%,46%)" r="0.5" /><circle cx="163" cy="35" fill="rgb(100%,100%,46%)" r="0.5" /><circle cx="163" cy="36" fill="rgb(100%,100%,46%)" r="0.5" /><circle cx="163" cy="37" fill="rgb(100%,100%,46%)" r="0.5" /><circle cx="163" cy="38" fill="rgb(100%,100%,46%)" r="0.5" /><circle cx="163" cy="39" fill="rgb(100%,100%,46%)" r="0.5" /><circle cx="163" cy="40" fill="rgb(100%,100%,46%)" r="0.5" /><circle cx="163" cy="41" fill="rgb(100%,100%,46%)" r="0.5" /><circle cx="163" cy="42" fill="rgb(100%,100%,46%)" r="0.5" /><circle cx="163" cy="43" fill="rgb(100%,100%,46%)" r="0.5" /><circle cx="164" cy="24" fill="rgb(100%,100%,46%)" r="0.5" /><circle cx="164" cy="25" fill="rgb(100%,100%,46%)" r="0.5" /><circle cx="164" cy="26" fill="rgb(100%,100%,46%)" r="0.5" /><circle cx="164" cy="27" fill="rgb(100%,100%,46%)" r="0.5" /><circle cx="164" cy="28" fill="rgb(100%,100%,46%)" r="0.5" /><circle cx="164" cy="29" fill="rgb(100%,100%,46%)" r="0.5" /><circle cx="164" cy="30" fill="rgb(100%,100%,46%)" r="0.5" /><circle cx="164" cy="31" fill="rgb(100%,100%,46%)" r="0.5" /><circle cx="164" cy="32" fill="rgb(100%,100%,46%)" r="0.5" /><circle cx="164" cy="33" fill="rgb(100%,100%,46%)" r="0.5" /><circle cx="164" cy="34" fill="rgb(100%,100%,46%)" r="0.5" /><circle cx="164" cy="35" fill="rgb(100%,100%,46%)" r="0.5" /><circle cx="164" cy="36" fill="rgb(100%,100%,46%)" r="0.5" /><circle cx="164" cy="37" fill="rgb(100%,100%,46%)" r="0.5" /><circle cx="164" cy="38" fill="rgb(100%,100%,46%)" r="0.5" /><circle cx="164" cy="39" fill="rgb(100%,100%,46%)" r="0.5" /><circle cx="164" cy="40" fill="rgb(100%,100%,46%)" r="0.5" /><circle cx="164" cy="41" fill="rgb(100%,100%,46%)" r="0.5" /><circle cx="164" cy="42" fill="rgb(100%,100%,46%)" r="0.5" /><circle cx="164" cy="43" fill="rgb(100%,100%,46%)" r="0.5" /><circle cx="165" cy="24" fill="rgb(100%,100%,46%)" r="0.5" /><circle cx="165" cy="25" fill="rgb(100%,100%,46%)" r="0.5" /><circle cx="165" cy="26" fill="rgb(100%,100%,46%)" r="0.5" /><circle cx="165" cy="27" fill="rgb(100%,100%,46%)" r="0.5" /><circle cx="165" cy="28" fill="rgb(100%,100%,46%)" r="0.5" /><circle cx="165" cy="29" fill="rgb(100%,100%,46%)" r="0.5" /><circle cx="165" cy="30" fill="rgb(100%,100%,46%)" r="0.5" /><circle cx="165" cy="31" fill="rgb(100%,100%,46%)" r="0.5" /><circle cx="165" cy="32" fill="rgb(100%,100%,46%)" r="0.5" /><circle cx="165" cy="33" fill="rgb(100%,100%,46%)" r="0.5" /><circle cx="165" cy="34" fill="rgb(100%,100%,46%)" r="0.5" /><circle cx="165" cy="35" fill="rgb(100%,100%,46%)" r="0.5" /><circle cx="165" cy="36" fill="rgb(100%,100%,46%)" r="0.5" /><circle cx="165" cy="37" fill="rgb(100%,100%,46%)" r="0.5" /><circle cx="165" cy="38" fill="rgb(100%,100%,46%)" r="0.5" /><circle cx="165" cy="39" fill="rgb(100%,100%,46%)" r="0.5" /><circle cx="165" cy="40" fill="rgb(100%,100%,46%)" r="0.5" /><circle cx="165" cy="41" fill="rgb(100%,100%,46%)" r="0.5" /><circle cx="165" cy="42" fill="rgb(100%,100%,46%)" r="0.5" /><circle cx="165" cy="43" fill="rgb(100%,100%,46%)" r="0.5" /><circle cx="166" cy="24" fill="rgb(100%,100%,46%)" r="0.5" /><circle cx="166" cy="25" fill="rgb(100%,100%,46%)" r="0.5" /><circle cx="166" cy="26" fill="rgb(100%,100%,46%)" r="0.5" /><circle cx="166" cy="27" fill="rgb(100%,100%,46%)" r="0.5" /><circle cx="166" cy="28" fill="rgb(100%,100%,46%)" r="0.5" /><circle cx="166" cy="29" fill="rgb(100%,100%,46%)" r="0.5" /><circle cx="166" cy="30" fill="rgb(100%,100%,46%)" r="0.5" /><circle cx="166" cy="31" fill="rgb(100%,100%,46%)" r="0.5" /><circle cx="166" cy="32" fill="rgb(100%,100%,46%)" r="0.5" /><circle cx="166" cy="33" fill="rgb(100%,100%,46%)" r="0.5" /><circle cx="166" cy="34" fill="rgb(100%,100%,46%)" r="0.5" /><circle cx="166" cy="35" fill="rgb(100%,100%,46%)" r="0.5" /><circle cx="166" cy="36" fill="rgb(100%,100%,46%)" r="0.5" /><circle cx="166" cy="37" fill="rgb(100%,100%,46%)" r="0.5" /><circle cx="166" cy="38" fill="rgb(100%,100%,46%)" r="0.5" /><circle cx="166" cy="39" fill="rgb(100%,100%,46%)" r="0.5" /><circle cx="166" cy="40" fill="rgb(100%,100%,46%)" r="0.5" /><circle cx="166" cy="41" fill="rgb(100%,100%,46%)" r="0.5" /><circle cx="166" cy="42" fill="rgb(100%,100%,46%)" r="0.5" /><circle cx="166" cy="43" fill="rgb(100%,100%,46%)" r="0.5" /><circle cx="167" cy="24" fill="rgb(100%,100%,46%)" r="0.5" /><circle cx="167" cy="25" fill="rgb(100%,100%,46%)" r="0.5" /><circle cx="167" cy="26" fill="rgb(100%,100%,46%)" r="0.5" /><circle cx="167" cy="27" fill="rgb(100%,100%,46%)" r="0.5" /><circle cx="167" cy="28" fill="rgb(100%,100%,46%)" r="0.5" /><circle cx="167" cy="29" fill="rgb(100%,100%,46%)" r="0.5" /><circle cx="167" cy="30" fill="rgb(100%,100%,46%)" r="0.5" /><circle cx="167" cy="31" fill="rgb(100%,100%,46%)" r="0.5" /><circle cx="167" cy="32" fill="rgb(100%,100%,46%)" r="0.5" /><circle cx="167" cy="33" fill="rgb(100%,100%,46%)" r="0.5" /><circle cx="167" cy="34" fill="rgb(100%,100%,46%)" r="0.5" /><circle cx="167" cy="35" fill="rgb(100%,100%,46%)" r="0.5" /><circle cx="167" cy="36" fill="rgb(100%,100%,46%)" r="0.5" /><circle cx="167" cy="37" fill="rgb(100%,100%,46%)" r="0.5" /><circle cx="167" cy="38" fill="rgb(100%,100%,46%)" r="0.5" /><circle cx="167" cy="39" fill="rgb(100%,100%,46%)" r="0.5" /><circle cx="167" cy="40" fill="rgb(100%,100%,46%)" r="0.5" /><circle cx="167" cy="41" fill="rgb(100%,100%,46%)" r="0.5" /><circle cx="167" cy="42" fill="rgb(100%,100%,46%)" r="0.5" /><circle cx="168" cy="25" fill="rgb(100%,100%,46%)" r="0.5" /><circle cx="168" cy="26" fill="rgb(100%,100%,46%)" r="0.5" /><circle cx="168" cy="27" fill="rgb(100%,100%,46%)" r="0.5" /><circle cx="168" cy="28" fill="rgb(100%,100%,46%)" r="0.5" /><circle cx="168" cy="29" fill="rgb(100%,100%,46%)" r="0.5" /><circle cx="168" cy="30" fill="rgb(100%,100%,46%)" r="0.5" /><circle cx="168" cy="31" fill="rgb(100%,100%,46%)" r="0.5" /><circle cx="168" cy="32" fill="rgb(100%,100%,46%)" r="0.5" /><circle cx="168" cy="33" fill="rgb(100%,100%,46%)" r="0.5" /><circle cx="168" cy="34" fill="rgb(100%,100%,46%)" r="0.5" /><circle cx="168" cy="35" fill="rgb(100%,100%,46%)" r="0.5" /><circle cx="168" cy="36" fill="rgb(100%,100%,46%)" r="0.5" /><circle cx="168" cy="37" fill="rgb(100%,100%,46%)" r="0.5" /><circle cx="168" cy="38" fill="rgb(100%,100%,46%)" r="0.5" /><circle cx="168" cy="39" fill="rgb(100%,100%,46%)" r="0.5" /><circle cx="168" cy="40" fill="rgb(100%,100%,46%)" r="0.5" /><circle cx="168" cy="41" fill="rgb(100%,100%,46%)" r="0.5" /><circle cx="168" cy="42" fill="rgb(100%,100%,46%)" r="0.5" /><circle cx="169" cy="25" fill="rgb(100%,100%,46%)" r="0.5" /><circle cx="169" cy="26" fill="rgb(100%,100%,46%)" r="0.5" /><circle cx="169" cy="27" fill="rgb(100%,100%,46%)" r="0.5" /><circle cx="169" cy="28" fill="rgb(100%,100%,46%)" r="0.5" /><circle cx="169" cy="29" fill="rgb(100%,100%,46%)" r="0.5" /><circle cx="169" cy="30" fill="rgb(100%,100%,46%)" r="0.5" /><circle cx="169" cy="31" fill="rgb(100%,100%,46%)" r="0.5" /><circle cx="169" cy="32" fill="rgb(100%,100%,46%)" r="0.5" /><circle cx="169" cy="33" fill="rgb(100%,100%,46%)" r="0.5" /><circle cx="169" cy="34" fill="rgb(100%,100%,46%)" r="0.5" /><circle cx="169" cy="35" fill="rgb(100%,100%,46%)" r="0.5" /><circle cx="169" cy="36" fill="rgb(100%,100%,46%)" r="0.5" /><circle cx="169" cy="37" fill="rgb(100%,100%,46%)" r="0.5" /><circle cx="169" cy="38" fill="rgb(100%,100%,46%)" r="0.5" /><circle cx="169" cy="39" fill="rgb(100%,100%,46%)" r="0.5" /><circle cx="169" cy="40" fill="rgb(100%,100%,46%)" r="0.5" /><circle cx="169" cy="41" fill="rgb(100%,100%,46%)" r="0.5" /><circle cx="170" cy="26" fill="rgb(100%,100%,46%)" r="0.5" /><circle cx="170" cy="27" fill="rgb(100%,100%,46%)" r="0.5" /><circle cx="170" cy="28" fill="rgb(100%,100%,46%)" r="0.5" /><circle cx="170" cy="29" fill="rgb(100%,100%,46%)" r="0.5" /><circle cx="170" cy="30" fill="rgb(100%,100%,46%)" r="0.5" /><circle cx="170" cy="31" fill="rgb(100%,100%,46%)" r="0.5" /><circle cx="170" cy="32" fill="rgb(100%,100%,46%)" r="0.5" /><circle cx="170" cy="33" fill="rgb(100%,100%,46%)" r="0.5" /><circle cx="170" cy="34" fill="rgb(100%,100%,46%)" r="0.5" /><circle cx="170" cy="35" fill="rgb(100%,100%,46%)" r="0.5" /><circle cx="170" cy="36" fill="rgb(100%,100%,46%)" r="0.5" /><circle cx="170" cy="37" fill="rgb(100%,100%,46%)" r="0.5" /><circle cx="170" cy="38" fill="rgb(100%,100%,46%)" r="0.5" /><circle cx="170" cy="39" fill="rgb(100%,100%,46%)" r="0.5" /><circle cx="170" cy="40" fill="rgb(100%,100%,46%)" r="0.5" /><circle cx="170" cy="41" fill="rgb(100%,100%,46%)" r="0.5" /><circle cx="171" cy="27" fill="rgb(100%,100%,46%)" r="0.5" /><circle cx="171" cy="28" fill="rgb(100%,100%,46%)" r="0.5" /><circle cx="171" cy="29" fill="rgb(100%,100%,46%)" r="0.5" /><circle cx="171" cy="30" fill="rgb(100%,100%,46%)" r="0.5" /><circle cx="171" cy="31" fill="rgb(100%,100%,46%)" r="0.5" /><circle cx="171" cy="32" fill="rgb(100%,100%,46%)" r="0.5" /><circle cx="171" cy="33" fill="rgb(100%,100%,46%)" r="0.5" /><circle cx="171" cy="34" fill="rgb(100%,100%,46%)" r="0.5" /><circle cx="171" cy="35" fill="rgb(100%,100%,46%)" r="0.5" /><circle cx="171" cy="36" fill="rgb(100%,100%,46%)" r="0.5" /><circle cx="171" cy="37" fill="rgb(100%,100%,46%)" r="0.5" /><circle cx="171" cy="38" fill="rgb(100%,100%,46%)" r="0.5" /><circle cx="171" cy="39" fill="rgb(100%,100%,46%)" r="0.5" /><circle cx="171" cy="40" fill="rgb(100%,100%,46%)" r="0.5" /><circle cx="172" cy="28" fill="rgb(100%,100%,46%)" r="0.5" /><circle cx="172" cy="29" fill="rgb(100%,100%,46%)" r="0.5" /><circle cx="172" cy="30" fill="rgb(100%,100%,46%)" r="0.5" /><circle cx="172" cy="31" fill="rgb(100%,100%,46%)" r="0.5" /><circle cx="172" cy="32" fill="rgb(100%,100%,46%)" r="0.5" /><circle cx="172" cy="33" fill="rgb(100%,100%,46%)" r="0.5" /><circle cx="172" cy="34" fill="rgb(100%,100%,46%)" r="0.5" /><circle cx="172" cy="35" fill="rgb(100%,100%,46%)" r="0.5" /><circle cx="172" cy="36" fill="rgb(100%,100%,46%)" r="0.5" /><circle cx="172" cy="37" fill="rgb(100%,100%,46%)" r="0.5" /><circle cx="172" cy="38" fill="rgb(100%,100%,46%)" r="0.5" /><circle cx="173" cy="30" fill="rgb(100%,100%,46%)" r="0.5" /><circle cx="173" cy="31" fill="rgb(100%,100%,46%)" r="0.5" /><circle cx="173" cy="32" fill="rgb(100%,100%,46%)" r="0.5" /><circle cx="173" cy="33" fill="rgb(100%,100%,46%)" r="0.5" /><circle cx="173" cy="34" fill="rgb(100%,100%,46%)" r="0.5" /><circle cx="173" cy="35" fill="rgb(100%,100%,46%)" r="0.5" /><circle cx="173" cy="36" fill="rgb(100%,100%,46%)" r="0.5" /></svg>